<?xml version="1.0" encoding="UTF-8"?>
<svg xmlns="http://www.w3.org/2000/svg" viewBox="0 0 413.44 186.78">
  <defs>
    <style>
      .cls-1 {
        isolation: isolate;
      }

      .cls-2 {
        fill: #fff;
        stroke-width: 0px;
      }

      .cls-3 {
        mix-blend-mode: multiply;
      }
    </style>
  </defs>
  <g class="cls-1">
    <g id="Layer_2" data-name="Layer 2">
      <g id="_Слой_1" data-name="Слой 1">
        <g class="cls-3">
          <path class="cls-2" d="M29.88,178.18c-2.59.28-5.48,1.05-8.43,1.57-7.29,1.59-14.93,1.67-21.45,5.14v1.9h34.6c-1.17-3.05-2.48-6.04-4.72-8.6ZM116.59,180.93c-4.88-4.13-8.28-3.54-10.85-1.88-2.54,1.78-4.27,4.6-5.64,7.74h20.01c-1.35-1.78-2.56-3.72-3.52-5.86ZM186.78,6.06V0h-59.52c1.76,12.42,15.11,20.34,19.52,32.1.85,3.38-1.69,5.08-4.23,5.92-11,1.69-20.3-2.53-27.07-10.99-5.67-8.67-9.37-17.74-11.68-27.02h-39.14c-.13,2.2-.64,4.45-1.62,6.72-.26-2.35-.84-4.61-1.75-6.72h-18.08c-8.7,6.69-22.57,5.01-33.84,0H0v54.43c.94.4,1.91.75,2.9,1.03,4.12,1.16,8.56,1.16,12.79-.53,7.61,2.53,12.68,9.3,20.3,10.99-10.15-7.61-17.77-17.76-22.22-29.58-2.2-4.12-3.68-7.05-4.42-10.07-.73-3.01-.73-6.1,2.7-6.19,7.87.17,14.64,1.86,22.25,1.86-.85,7.61-12.69,3.38-12.39,12.14.84,2.65,1.86,5.23,3.07,7.7,3.61,7.43,8.9,13.99,16.08,19.06,11.28,7.33,24.81,9.03,36.34,4.82,5.76-2.1,11.03-5.66,15.84-10.23,7.03-4.74,8.72-13.19,7.88-20.81,2.53,5.93.84,12.68-3.61,17.97-4.8,5.13-10.35,10.36-16.7,13.33-17.76,7.61-38.06,0-51.59-12.68,11.83,17.76,35.52,24.53,55.82,18.6-20.3,12.69-45.68,2.54-62.93-10.25-3.33-.13-6.06.58-8.86.84-4.35.41-8.88-.26-13.26-1.77v13.3c.54.35,1.07.69,1.62,1.01,3.31,1.96,6.89,3.49,10.69,4.48-1.69,16.92-11.84,33.83-4.23,50.74-.85-5.92-.85-12.68,0-18.61-1.69,12.69,2.53,24.53,7.61,36.37-14.38-16.07-11.84-37.21-7.61-57.51,0-1.69-.85-3.38-2.87-3.47-1.73.05-3.47.08-5.21.11v65.23c.18.08.37.15.56.22,1.87.83,3.79,1.55,6.15,2.6,17.44,18.19,44.5,30.02,69.03,19.03,21.14-10.15,34.68-34.68,26.22-57.51-5.08-13.53-18.6-24.53-32.99-22.83-10.14,1.69-20.29,6.77-23.68,17.76-3.38,9.31,1.69,17.76,8.46,24.53-13.53,0-18.61-15.22-15.23-26.22,1.69-6.77,5.73-12.12,11.02-15.85,2.65-1.87,5.61-3.32,9.75-4.07,9.67,2.16,23.2-7.14,28.28,3.01,2.96,1.9,5.62,4.06,7.97,6.41,16.44,16.49,17.83,42.85,3.02,62.1-10.14,13.53-25.37,20.3-41.83,21.85-8.85.53-12.78,1.41-16.01,2.37.04.36.08.71.13,1.07h31.03c.41-1.75,1.54-2.73,3.84-3.3,27.91-10.14,44.83-43.13,33.84-71.89-1.55-3.8-3.57-7.33-5.97-10.52-2.4-3.19-5.18-6.05-8.25-8.53-3.54-6.32,4.91-10.56,7.46-15.63-15.23,5.08-30.45,11-47.36,9.31,14.09,1.13,27.81-2.63,40.4-9.03,6.3-3.19,12.32-7.04,18.95-10.96-2.27,4.34-5.02,7.93-8.13,11.25-3.11,3.31-6.58,6.36-9.29,9.91,1.71,2.63,4.44,4.98,6.84,7.53,16.73,17.81,17.28,45.06,6.05,66.21,2.19,1,5.1.88,7.3,5.17,4.68,6.19,8.07,17.18,17.37,14.64,4.23-.84,3.38-5.92,2.54-8.46-.4-10.97,1.94-21.57,6.38-31.25-5.89,14.78-5.1,31.81.47,45.54h42.44v-34.42c-1.3-.38-2.79-1.86-2.79-1.86.93-.49,1.85-.97,2.79-1.44v-10.12c-2.59.39-5.23.56-7.86.56-5.94,0-11.6-1.16-17.15-2.81,7.98,1.98,16.77,3.33,25.01,1.37v-13.82c-6.52.18-13.11-.9-19.7-4.19-10.57-5.5-17.97-14.16-22.45-24.23-1.49-3.35-2.66-6.87-3.51-10.46,3.97-7.59,15.81-9.29,18.34-16.89,0-.85-5.92,0-4.23-.85,9.3-8.46,19.45-16.07,22.83-28.75.81-3.25.45-8.86-.99-13.04,2.97,6.44,2,15-.7,21.5-3.38,6.77-10.15,11-15.2,16.9-.03.87,1.66,2.56,3.35,2.56-5.08,5.07-10.15,10.14-16.6,13.35-3.26,1.78-5.59,3.61-5.36,6.15,1.66,7.98,5.04,15.6,10.96,21.94,9.32,10.71,21.19,14.75,33.23,14.25v-23.16c-2.28.86-5.37.94-7.86.44-5.5-1.26-9.72-4.44-12.68-8.56-1.48-2.06-1.64-4.4.38-7.06,6.64-5.79,11.35-12.56,14.49-19.99,3.14-7.43,4.71-15.51,5.08-23.92.67-9.22-.09-19-2.04-28.57-.73-3.48.55-5,2.65-5.6ZM144.96,138.95c.08-.14.18-.28.26-.42-.15.24-.28.49-.42.74.05-.11.11-.21.16-.32ZM121.41,37.17c7.62,6.76,16.92,10.14,27.07,8.45,1.99-.38,3.74-1,5.3-1.84-2.33,1.98-5.12,3.31-8.68,3.54,1.11.14,2.23.21,3.33.21-9.74.87-19.7-3.64-27.01-10.35ZM153.55,49.86c0-2.53,2.11-2.64,3.81-3.22-1.24,1.16-2.53,2.25-3.81,3.22ZM159.41,44.61c.03-.16.05-.34.05-.54.94-.72,1.83-1.56,2.63-2.53-.83,1.03-1.74,2.07-2.69,3.07ZM168.78,21.95c-1.25,1.25-2.36,2.74-3.41,4.38.93-2.92,1.71-5.87,2.56-8.61,2.04.68,3.74,1.64,5.16,2.82-1.23-.4-2.67-.04-4.31,1.42Z"/>
          <g>
            <path class="cls-2" d="M266.6,0l-30.09,162.34h30.28v24.44h-59.65l30.1-162.34h-29.37V0h58.73Z"/>
            <path class="cls-2" d="M289.22,178.57c-4.01-4.13-6.57-8.76-7.66-13.86-.12-.85-.18-1.7-.18-2.55V24.62c0-.73.06-1.46.18-2.19.97-5.23,3.46-9.91,7.48-14.05,5.35-5.59,12.22-8.39,20.61-8.39s15.14,2.68,20.61,8.03c4.26,4.13,6.99,8.76,8.21,13.86.12.85.18,1.76.18,2.74v137.53c0,.85-.06,1.7-.18,2.55-1.09,5.11-3.71,9.73-7.84,13.86-5.47,5.47-12.47,8.21-20.98,8.21s-14.96-2.74-20.43-8.21ZM304.55,160.52c.85,2.07,2.56,3.1,5.11,3.1,2.31,0,4.01-.67,5.11-2.01.24-.37.48-.79.73-1.28V26.45c-1.09-2.19-3.04-3.28-5.84-3.28-2.55,0-4.26.98-5.11,2.92v134.43Z"/>
            <path class="cls-2" d="M413.44,186.6h-24.44v-87.56c-.12-2.8-.79-5.41-2.01-7.84-1.58-3.16-4.26-4.74-8.02-4.74h-1.28v100.32h-24.44V0h24.44v62.02c7.05-5.59,10.58-11.49,10.58-17.69V0h24.26v44.32c0,12.65-2.86,21.71-8.57,27.18l-.73.73c6.57,7.18,9.97,15.99,10.21,26.45v87.92Z"/>
          </g>
        </g>
      </g>
    </g>
  </g>
</svg>